<svg fill="none" xmlns="http://www.w3.org/2000/svg" viewBox="0 0 240 57"><path d="M81.816 43.751h-12.96V25.846h3.878v14.323h9.082v3.582zM55.384 34.875v-5.474h2.997c1.94 0 3.149.947 3.149 2.712v.05c0 1.535-1.133 2.712-3.072 2.712h-3.074zm-3.88 8.876h3.88V38.38h2.946c3.956 0 7.13-2.15 7.13-6.293v-.051c0-3.658-2.545-6.19-6.75-6.19h-7.206V43.75zm-21.864 0h3.803V32.14l4.912 7.57h.101l4.963-7.648v11.69h3.854V25.845h-4.108l-4.709 7.571-4.827-7.571h-3.99V43.75zM89.832 43.751h-3.88v-7.06l-6.776-10.845h4.535l4.207 7.188 4.28-7.188h4.41l-6.776 10.768v7.137zM25.23 43.751h-3.88V25.846h3.88V43.75zM17.611 38.456c0 3.556-2.938 5.55-7.123 5.55-2.938 0-5.904-.945-8.23-2.865l2.25-2.772c1.747 1.33 3.847 2.16 6.065 2.16 1.745 0 2.965-.64 2.965-1.688v-.05c0-1-.736-1.57-3.978-2.338-3.91-.92-6.528-2.175-6.528-5.415v-.05c0-3.25 2.828-5.397 6.791-5.397 2.827 0 5.239.817 7.206 2.275l-2.31 2.923c-1.717-1.1-3.316-1.72-4.952-1.72-1.634 0-2.73.69-2.73 1.559v.051c0 1.178 1.068 1.562 4.422 2.354 3.937.946 6.152 2.252 6.152 5.372v.051zM172.429 37.224l4.03-9.042 4.006 9.042h-8.036zm-4.91 6.527h2.038l2.09-4.698h9.6l2.064 4.698h2.143l-8.037-17.905h-1.863l-8.035 17.905zM200.397 43.751h-11.726V25.846h1.99v16.039h9.736v1.866zM215.453 43.751h-11.726V25.846h1.991v16.039h9.735v1.866zM152.191 43.751h-1.783l-5.53-17.905h1.938l4.516 14.806 4.331-14.806h1.468l4.333 14.806 4.512-14.806h1.874l-5.547 17.905h-1.726l-4.212-14.372-4.174 14.372zM218.864 41.885h19.812v1.867h-19.812v-1.867zM228.545 35.213c0 2.451-1.947 3.898-4.61 3.898-2.012 0-3.756-.652-5.238-1.976l1.605-1.922c1.113.917 2.221 1.51 3.633 1.51 1.111 0 1.835-.523 1.835-1.247v-.035c0-.74-.449-1.302-2.485-1.784-2.489-.636-4.093-1.622-4.093-3.914v-.035c0-2.24 1.798-3.722 4.321-3.722 1.799 0 3.332.564 4.585 1.57l-1.409 2.045c-1.094-.758-2.172-1.216-3.212-1.216-1.041 0-1.588.476-1.588 1.076v.035c0 .812.528 1.216 2.665 1.762 2.503.653 3.991 1.768 3.991 3.919v.036zM235.475 38.995h-2.589V28.668h-3.309v-2.505h9.187v2.506h-3.289v10.326z" fill="#1A1A1A"/><path fill-rule="evenodd" clip-rule="evenodd" d="M120.795 11.947c12.022 0 21.767 9.896 21.767 22.103 0 12.206-9.745 22.103-21.767 22.103S99.027 46.256 99.027 34.05c0-12.206 9.746-22.103 21.768-22.103z" fill="#CCC"/><path fill-rule="evenodd" clip-rule="evenodd" d="M142.008 39.015h.002l-.004.014a22.326 22.326 0 01-.838 2.821l-.048.128c-.045.113-.088.227-.135.34a2.27 2.27 0 01-.073.18c-.038.099-.078.197-.119.297-.03.073-.065.148-.096.222-.037.084-.076.167-.114.25a8.08 8.08 0 01-.113.253l-.105.223c-3.539 7.348-10.971 12.41-19.569 12.41-8.609 0-16.05-5.072-19.582-12.435-.025-.056-.052-.11-.077-.165-.049-.108-.1-.215-.148-.324a8.657 8.657 0 01-.076-.169c-.047-.109-.096-.22-.142-.33l-.064-.152a21.371 21.371 0 01-.142-.354l-.052-.136a29.37 29.37 0 01-.144-.38l-.042-.114c-.048-.135-.094-.27-.141-.406l-.032-.093a27.192 27.192 0 01-.137-.431l-.024-.08c-.046-.15-.09-.3-.132-.452l-.016-.061a44.286 44.286 0 01-.127-.47l-.013-.054a22.27 22.27 0 01-.115-.477l-.012-.053v-.003a784.916 784.916 0 0111.383-7.65c3.624-.882 6.901-1.375 9.835-1.478 2.93.105 6.207.596 9.832 1.477 4.192 2.755 8.693 5.743 11.405 7.551v.003l-.003.002v.001c-.008.033-.013.064-.022.095z" fill="#1A1A1A"/><path fill-rule="evenodd" clip-rule="evenodd" d="M99.578 39.015a784.185 784.185 0 0111.383-7.65c3.624-.882 6.901-1.374 9.835-1.478 2.93.104 6.207.596 9.832 1.478 4.192 2.754 8.693 5.742 11.405 7.55-.03.14-.064.278-.097.417l-.016.068c-.031.131-.066.26-.101.393l-.022.08a9.07 9.07 0 01-.108.392l-.017.06a22.501 22.501 0 01-.736 2.127l-.026.055c-.047.122-.101.244-.151.367l-.035.08c-.053.12-.105.239-.159.358l-.033.074c-.058.121-.112.245-.17.366l-.016.027c-.257.53-.531 1.047-.829 1.553l-.036.065c-.064.108-.13.214-.195.32l-.057.096c-.064.102-.128.205-.195.306l-.062.096c-.065.104-.133.205-.201.306l-.051.077c-.316.459-.645.908-.993 1.344-.022.028-.047.057-.068.086-.07.088-.144.175-.214.26-.032.04-.062.077-.097.116l-.209.247-.106.118c-.07.081-.144.162-.214.242-.034.038-.067.075-.105.113-.075.08-.149.163-.227.242a19.215 19.215 0 01-.999.991c-.07.067-.142.13-.212.196-.049.046-.101.091-.151.136-.067.06-.137.121-.208.182-.056.046-.109.094-.162.14l-.21.175c-.054.046-.109.09-.165.135l-.213.172-.174.136c-.072.054-.14.11-.212.163-.059.045-.12.088-.178.133-.126.092-.254.186-.383.277-.067.05-.139.1-.209.148l-.194.133c-.073.048-.142.095-.215.142l-.2.13c-.073.046-.143.092-.216.136-.066.043-.135.084-.201.126l-.23.137c-.064.04-.129.076-.194.115-.081.047-.162.092-.246.138l-.185.104c-.108.06-.215.118-.326.176l-.142.075-.399.2c-.053.027-.106.051-.161.077-.095.047-.192.092-.287.136l-.185.085-.271.12-.196.084c-.089.038-.179.074-.269.111a9.108 9.108 0 01-.192.078l-.288.111-.181.068-.366.131-.103.037c-.157.053-.316.106-.477.156-.04.014-.083.025-.127.039a13.902 13.902 0 01-.527.155c-.105.03-.212.06-.319.087l-.188.048c-.102.027-.207.052-.31.078l-.189.043a20.183 20.183 0 01-1.509.293l-.057.008c-.15.023-.302.045-.454.065l-.153.02-.362.042-.179.017c-.115.012-.231.022-.346.031l-.186.015a9.5 9.5 0 01-.346.022l-.182.011c-.127.006-.257.01-.386.015a22.468 22.468 0 01-1.342 0c-.128-.005-.259-.009-.387-.015l-.176-.011a10.171 10.171 0 01-.534-.037c-.116-.008-.229-.02-.344-.03-.06-.006-.119-.01-.178-.017-.124-.015-.251-.027-.373-.044a18.733 18.733 0 01-.64-.088l-.013-.002a17.021 17.021 0 01-1.017-.184c-.055-.01-.107-.023-.164-.034a20.005 20.005 0 01-.836-.197l-.173-.045a16.413 16.413 0 01-.49-.136c-.143-.04-.284-.083-.426-.128l-.057-.018c-.162-.05-.324-.105-.485-.16-.035-.01-.068-.024-.104-.036l-.367-.13-.159-.06-.312-.12-.171-.07-.296-.123-.169-.071a41.09 41.09 0 01-.457-.204 15.08 15.08 0 01-.368-.174l-.081-.038c-.15-.074-.299-.15-.447-.226l-.1-.053-.337-.18-.151-.085-.284-.16-.158-.093-.272-.163c-.053-.035-.107-.066-.158-.098l-.279-.176-.138-.09-.318-.212-.095-.064a29.452 29.452 0 01-.406-.285l-.079-.058a23.682 23.682 0 01-.317-.237l-.137-.105c-.085-.065-.171-.13-.254-.197l-.148-.118a9.28 9.28 0 01-.242-.199c-.048-.04-.097-.079-.143-.12-.08-.067-.161-.135-.241-.205l-.138-.12-.253-.228c-.038-.035-.076-.068-.114-.105-.121-.11-.238-.222-.356-.336l-.066-.065c-.095-.091-.189-.186-.282-.279l-.128-.13c-.072-.075-.145-.15-.215-.225a13.294 13.294 0 01-.473-.517l-.195-.224c-.044-.051-.087-.1-.13-.152-.07-.082-.137-.165-.206-.247a4.31 4.31 0 01-.109-.131c-.103-.127-.204-.255-.305-.384-.014-.017-.026-.037-.041-.056-.085-.11-.17-.223-.254-.336-.038-.052-.074-.103-.113-.154l-.176-.246c-.042-.058-.08-.115-.12-.174a16.601 16.601 0 01-.162-.237c-.039-.059-.079-.117-.117-.177-.054-.081-.107-.165-.161-.247-.038-.057-.073-.114-.11-.172a35.973 35.973 0 01-.158-.26c-.035-.055-.07-.111-.103-.167a27.539 27.539 0 01-.19-.327c-.03-.052-.061-.105-.089-.157a13.132 13.132 0 01-.297-.545c-.046-.088-.093-.175-.138-.264l-.097-.195c-.043-.085-.084-.172-.126-.259l-.094-.2-.116-.253c-.032-.068-.062-.138-.093-.208a5.637 5.637 0 01-.113-.264l-.084-.195c-.044-.105-.086-.213-.129-.32-.019-.048-.041-.098-.06-.148-.058-.15-.114-.302-.171-.455l-.069-.198-.097-.279-.069-.215c-.03-.09-.06-.179-.087-.269l-.068-.222-.078-.27-.064-.22-.073-.278c-.02-.073-.039-.145-.055-.217-.027-.104-.051-.207-.076-.31l-.045-.188v-.01h-.003z" fill="#333"/><path fill-rule="evenodd" clip-rule="evenodd" d="M99.578 39.015c4.739 3.65 10.403 6.79 10.403 6.79-1.113 1.587-2.018 3.474-2.727 5.552a22.15 22.15 0 01-7.676-12.342z" fill="#333"/><path fill-rule="evenodd" clip-rule="evenodd" d="M142.031 38.914c-4.741 3.65-10.404 6.789-10.404 6.789 1.126 1.605 2.037 3.515 2.749 5.616a22.105 22.105 0 007.655-12.405zM100.705 42.574l-1.128-3.56 11.543-7.65 9.683 20.815v3.975h-.008c-9.048 0-16.804-5.604-20.09-13.58z" fill="#4D4D4D"/><path fill-rule="evenodd" clip-rule="evenodd" d="M140.985 42.32l.959-3.03c.024-.097.049-.191.067-.289l-11.522-7.637-9.686 20.814v3.975c9.139-.003 16.959-5.725 20.182-13.832z" fill="#333"/><path fill-rule="evenodd" clip-rule="evenodd" d="M110.96 31.364l9.835 21.429 9.832-21.43H110.96z" fill="#CCC"/><path fill-rule="evenodd" clip-rule="evenodd" d="M118.223 47.19l2.572 5.603 2.57-5.602-1.861-3.549h-.04l1.41-1.37.215-.187-.766-3.984c-.137-.139-.111-.155-.277-.155l-1.252.26-1.255-.26c-.165 0-.14.016-.276.155l-.766 3.984.215.187 1.41 1.37h-.04l-1.859 3.549z" fill="#C30"/><path fill-rule="evenodd" clip-rule="evenodd" d="M120.795 52.793l2.57-5.602-1.861-3.549h-.04l1.41-1.37.215-.187-.766-3.984c-.137-.139-.111-.155-.277-.155l-1.252.26v14.587h.001z" fill="#A32900"/><path d="M121.999 46.749h-4.721v.965h4.721v-.965z" fill="#FC0"/><path fill-rule="evenodd" clip-rule="evenodd" d="M110.96 31.364l5.75 12.532h.001l4.084-4.136 3.906-8.396h5.926l-5.749 12.532-4.083-4.136-3.911-8.396h-5.924z" fill="#fff"/><path fill-rule="evenodd" clip-rule="evenodd" d="M108.928 32.708l-.478 5.481 3.261 1.483-2.424 1.493 11.508 11.628-9.835-21.43-2.032 1.345zM132.658 32.708l.48 5.481-3.261 1.483 2.424 1.493-11.506 11.628 9.832-21.43 2.031 1.345z" fill="#1A1A1A"/><path fill-rule="evenodd" clip-rule="evenodd" d="M120.804 53.754c.492 0 .888.405.888.902a.894.894 0 01-.888.902.895.895 0 01-.887-.902c0-.498.398-.902.887-.902z" fill="#B3B3B3"/><path fill-rule="evenodd" clip-rule="evenodd" d="M120.804 53.754c.492 0 .888.405.888.902a.894.894 0 01-.888.902v-1.804z" fill="gray"/><path fill-rule="evenodd" clip-rule="evenodd" d="M120.804 53.754c.492 0 .888.405.888.902a.894.894 0 01-.888.902.895.895 0 01-.887-.902c0-.498.398-.902.887-.902z" fill="#B3B3B3"/><path fill-rule="evenodd" clip-rule="evenodd" d="M120.804 53.754c.492 0 .888.405.888.902a.894.894 0 01-.888.902v-1.804z" fill="gray"/><path d="M135.102 48.149h-7.478v1.059h7.478v-1.059z" fill="#4D4D4D"/><path fill-rule="evenodd" clip-rule="evenodd" d="M127.624 48.149l3.051-3.099 1.731 1.756.687-.697 2.009 2.04h-7.478z" fill="#fff"/><path fill-rule="evenodd" clip-rule="evenodd" d="M131.493 18.868c-1.077-1.417-1.041-2.639.111-3.667 4.618 1.291 6.988 1.89 7.105 1.8-1.824 2.854-4.231 3.477-7.216 1.867zm-21.399 0c1.078-1.417 1.041-2.639-.111-3.667-4.617 1.291-6.985 1.89-7.104 1.8 1.822 2.854 4.229 3.477 7.215 1.867z" fill="#963"/><path fill-rule="evenodd" clip-rule="evenodd" d="M127.577 16.935c-2.264-2.704-2.592-4.241-.986-4.611 6.38.34 8.814-2.495 7.306-8.501L132.742.998c3.937 2.625 5.698 6.221 5.161 10.781-.305 2.581-3.783 4.298-10.326 5.156zm-13.566 0c2.263-2.704 2.592-4.241.986-4.611-6.38.34-8.814-2.495-7.308-8.501l1.158-2.825c-3.94 2.625-5.697 6.221-5.162 10.781.303 2.581 3.781 4.298 10.326 5.156z" fill="#1A1A1A"/><path fill-rule="evenodd" clip-rule="evenodd" d="M120.795 39.76l-14.349-12.25c.248-6.489 1.473-11.884 3.676-16.185 2.139-2.54 5.683-3.265 10.673-3.265 4.987 0 8.531.724 10.67 3.265 2.201 4.302 3.427 9.697 3.676 16.185l-14.346 12.25z" fill="#C93"/><path fill-rule="evenodd" clip-rule="evenodd" d="M120.795 8.06c4.987 0 8.531.724 10.669 3.265 2.202 4.302 3.428 9.697 3.677 16.185l-14.346 12.25V8.06z" fill="#A37A29"/><path fill-rule="evenodd" clip-rule="evenodd" d="M106.522 25.706c.392-5.69 1.585-10.485 3.579-14.382.085-.1.172-.2.263-.295 5.508-4.441 4.368 10.114 4.425 11.947.577 2.105-.773 3.392-4.05 3.862-1.701-.26-3.106-.638-4.217-1.132zM135.066 25.706c-.392-5.69-1.586-10.485-3.579-14.382-.086-.1-.174-.2-.264-.295-5.507-4.441-4.369 10.114-4.424 11.947-.578 2.105.773 3.392 4.052 3.862 1.699-.26 3.102-.638 4.215-1.132z" fill="#963"/><path fill-rule="evenodd" clip-rule="evenodd" d="M120.795 39.76l-14.349-12.25a55.32 55.32 0 01.355-4.535h27.985a55.32 55.32 0 01.355 4.535l-14.346 12.25z" fill="#963"/><path fill-rule="evenodd" clip-rule="evenodd" d="M120.795 39.76l-9.424-8.043s1.238-1.9 3.71-5.704c-.143-1.334-.158-2.346-.051-3.036h2.401c.882.952 2.003 2.516 3.363 4.696 1.357-2.18 2.477-3.744 3.361-4.696h2.401c.107.69.09 1.703-.051 3.036l3.71 5.703v.001l-9.42 8.043z" fill="#85592B"/><path fill-rule="evenodd" clip-rule="evenodd" d="M115.082 26.012c.075-1.944 3.062-.112 4.439.84.223.175.451.338.682.49l.001.002c.205.137.415.263.625.383.484-.273.957-.595 1.417-.963 1.427-.97 4.24-2.638 4.312-.752 4.068-7.36-15.745-7.343-11.476 0z" fill="#1A1A1A"/><path fill-rule="evenodd" clip-rule="evenodd" d="M120.795 20.886c1.828 0 3.31.738 3.31 1.646 0 .909-1.482 1.646-3.31 1.646-1.83 0-3.313-.737-3.313-1.646.001-.908 1.483-1.646 3.313-1.646z" fill="#666"/><path fill-rule="evenodd" clip-rule="evenodd" d="M120.795 31.309c-4.648 0-5.485-.847-5.253-2.69.062 1.543 1.81 1.901 5.253 1.901 3.44 0 5.189-.358 5.25-1.9.232 1.842-.605 2.689-5.25 2.689zM128.685 17.292c-.86-.037-1.614.67-1.893 1.578-.691-5.887 4.682-6.132 5.884-2.269-1.012.628-2.103.775-3.991.691zm-15.781 0c.86-.037 1.614.67 1.892 1.578.691-5.887-4.682-6.132-5.883-2.269 1.012.628 2.101.775 3.991.691z" fill="#1A1A1A"/></svg>
