<svg width="14" height="6" viewBox="0 0 14 6" fill="none" xmlns="http://www.w3.org/2000/svg">
<path d="M1 2.6C0.779086 2.6 0.6 2.77909 0.6 3C0.6 3.22091 0.779086 3.4 1 3.4L1 2.6ZM13.2828 3.28284C13.4391 3.12663 13.4391 2.87337 13.2828 2.71716L10.7373 0.171574C10.581 0.0153641 10.3278 0.015364 10.1716 0.171574C10.0154 0.327783 10.0154 0.581049 10.1716 0.737259L12.4343 3L10.1716 5.26274C10.0154 5.41895 10.0154 5.67222 10.1716 5.82843C10.3278 5.98464 10.581 5.98464 10.7373 5.82843L13.2828 3.28284ZM1 3.4L13 3.4L13 2.6L1 2.6L1 3.4Z" fill="#0FC2C0"/>
</svg>
