<svg width="26" height="15" viewBox="0 0 26 15" fill="none" xmlns="http://www.w3.org/2000/svg">
<rect width="26" height="15" fill="#E5E5E5"/>
<rect width="1440" height="1024" transform="translate(-42 -105)" fill="#F4F4F4"/>
<path d="M13 0C6.09374 0 0.487488 6.09375 0.487488 13.5687C0.487488 13.975 0.812488 14.3 1.21874 14.3H24.7812C25.1875 14.3 25.5125 13.975 25.5125 13.5687C25.5125 6.09375 19.9062 0 13 0ZM14.4625 12.8781L13.3656 9.38437C13.2437 9.01875 12.7562 9.01875 12.6344 9.38437L11.5375 12.8781H1.94999C2.27499 6.5 7.10936 1.42187 13 1.42187C18.8906 1.42187 23.725 6.5 24.05 12.8781H14.4625Z" fill="#1D1F29"/>
<path d="M13 5.23755C12.5937 5.23755 12.2687 5.56255 12.2687 5.9688V7.02505C12.2687 7.4313 12.5937 7.7563 13 7.7563C13.4062 7.7563 13.7312 7.4313 13.7312 7.02505V5.9688C13.7312 5.56255 13.4062 5.23755 13 5.23755Z" fill="#1D1F29"/>
<path d="M19.2156 8.28433L18.5656 8.97495C18.2813 9.25933 18.2813 9.7062 18.5656 9.99058C18.6875 10.1125 18.8906 10.1937 19.0531 10.1937C19.2563 10.1937 19.4188 10.1125 19.5813 9.99058L20.2313 9.29995C20.5156 9.01558 20.5156 8.5687 20.2313 8.28433C19.9469 7.99995 19.5 7.99995 19.2156 8.28433Z" fill="#1D1F29"/>
<path d="M6.78436 8.28424C6.54061 7.99986 6.05311 7.95924 5.76874 8.24361C5.48436 8.48736 5.44374 8.97486 5.72811 9.25924L6.33749 9.94986C6.45936 10.1124 6.66249 10.1936 6.86561 10.1936C7.02811 10.1936 7.19061 10.153 7.35311 10.0311C7.63749 9.78736 7.67811 9.29986 7.39374 9.01549L6.78436 8.28424Z" fill="#1D1F29"/>
</svg>
