<svg width="20" height="22" viewBox="0 0 20 22" fill="none" xmlns="http://www.w3.org/2000/svg">
<path d="M18.083 14.2001L19.285 14.9211C19.3591 14.9655 19.4205 15.0283 19.4631 15.1035C19.5058 15.1787 19.5282 15.2636 19.5282 15.3501C19.5282 15.4365 19.5058 15.5214 19.4631 15.5966C19.4205 15.6718 19.3591 15.7347 19.285 15.7791L10.515 21.0411C10.3594 21.1345 10.1814 21.1839 9.99998 21.1839C9.81853 21.1839 9.64051 21.1345 9.48498 21.0411L0.714977 15.7791C0.640823 15.7347 0.579442 15.6718 0.536823 15.5966C0.494204 15.5214 0.471802 15.4365 0.471802 15.3501C0.471802 15.2636 0.494204 15.1787 0.536823 15.1035C0.579442 15.0283 0.640823 14.9655 0.714977 14.9211L1.91698 14.2001L9.99998 19.0501L18.083 14.2001ZM18.083 9.50007L19.285 10.2211C19.3591 10.2655 19.4205 10.3283 19.4631 10.4035C19.5058 10.4787 19.5282 10.5636 19.5282 10.6501C19.5282 10.7365 19.5058 10.8214 19.4631 10.8966C19.4205 10.9718 19.3591 11.0347 19.285 11.0791L9.99998 16.6501L0.714977 11.0791C0.640823 11.0347 0.579442 10.9718 0.536823 10.8966C0.494204 10.8214 0.471802 10.7365 0.471802 10.6501C0.471802 10.5636 0.494204 10.4787 0.536823 10.4035C0.579442 10.3283 0.640823 10.2655 0.714977 10.2211L1.91698 9.50007L9.99998 14.3501L18.083 9.50007ZM10.514 0.30907L19.285 5.57107C19.3591 5.61546 19.4205 5.67832 19.4631 5.75351C19.5058 5.82869 19.5282 5.91364 19.5282 6.00007C19.5282 6.0865 19.5058 6.17145 19.4631 6.24663C19.4205 6.32182 19.3591 6.38468 19.285 6.42907L9.99998 12.0001L0.714977 6.42907C0.640823 6.38468 0.579442 6.32182 0.536823 6.24663C0.494204 6.17145 0.471802 6.0865 0.471802 6.00007C0.471802 5.91364 0.494204 5.82869 0.536823 5.75351C0.579442 5.67832 0.640823 5.61546 0.714977 5.57107L9.48498 0.30907C9.64051 0.215626 9.81853 0.16626 9.99998 0.16626C10.1814 0.16626 10.3594 0.215626 10.515 0.30907H10.514ZM9.99998 2.33207L3.88698 6.00007L9.99998 9.66807L16.113 6.00007L9.99998 2.33207Z" fill="#0FC2C0"/>
</svg>
