<svg width="57" height="46" viewBox="0 0 57 46" fill="none" xmlns="http://www.w3.org/2000/svg">
<path fill-rule="evenodd" clip-rule="evenodd" d="M5.43285 0C0.238621 10.9906 27.1501 10.1441 28.6238 21.4323H28.8016C30.2752 10.1441 57.1869 10.9906 51.9926 0C66.3286 16.5542 45.7581 13.843 41.4906 21.5139C40.6549 23.5772 40.786 25.3207 40.7505 27.6485C40.5482 32.9806 30.4441 34.7088 30.5753 43.9427C30.5844 44.7922 30.0122 45.2935 29.307 45.4944L28.7127 45.578L28.1183 45.4944C27.4131 45.2935 26.8409 44.7922 26.8501 43.9427C26.9812 34.7088 16.8771 32.9806 16.6749 27.6485C16.6393 25.3207 16.7704 23.5772 15.9347 21.5139C11.6671 13.843 -8.90308 16.5542 5.43285 0Z" fill="#0FC2C0"/>
</svg>
