<svg width="24" height="11" viewBox="0 0 24 11" fill="none" xmlns="http://www.w3.org/2000/svg">
<path d="M14.257 9C13.4616 8.03586 13.0184 6.82957 13.0002 5.57982C12.9821 4.33008 13.3902 3.11142 14.1572 2.12461C14.9243 1.13779 16.0046 0.441663 17.2202 0.1509C18.4358 -0.139863 19.7141 -0.00792128 20.8447 0.524991C21.9753 1.0579 22.8906 1.96 23.44 3.08269C23.9893 4.20537 24.1399 5.48168 23.8668 6.70138C23.5938 7.92107 22.9135 9.0114 21.938 9.79277C20.9625 10.5741 19.7499 10.9999 18.5 11H5.50001C4.25014 10.9999 3.03756 10.5741 2.06203 9.79277C1.0865 9.0114 0.406196 7.92107 0.133184 6.70138C-0.139828 5.48168 0.0107353 4.20537 0.560072 3.08269C1.10941 1.96 2.02475 1.0579 3.15533 0.524991C4.2859 -0.00792128 5.56427 -0.139863 6.77985 0.1509C7.99544 0.441663 9.07574 1.13779 9.8428 2.12461C10.6099 3.11142 11.0179 4.33008 10.9998 5.57982C10.9817 6.82957 10.5384 8.03586 9.74301 9H14.257ZM5.50001 9C6.42827 9 7.31851 8.63126 7.97489 7.97488C8.63126 7.3185 9.00001 6.42826 9.00001 5.5C9.00001 4.57175 8.63126 3.68151 7.97489 3.02513C7.31851 2.36875 6.42827 2 5.50001 2C4.57176 2 3.68152 2.36875 3.02514 3.02513C2.36876 3.68151 2.00001 4.57175 2.00001 5.5C2.00001 6.42826 2.36876 7.3185 3.02514 7.97488C3.68152 8.63126 4.57176 9 5.50001 9ZM18.5 9C19.4283 9 20.3185 8.63126 20.9749 7.97488C21.6313 7.3185 22 6.42826 22 5.5C22 4.57175 21.6313 3.68151 20.9749 3.02513C20.3185 2.36875 19.4283 2 18.5 2C17.5718 2 16.6815 2.36875 16.0251 3.02513C15.3688 3.68151 15 4.57175 15 5.5C15 6.42826 15.3688 7.3185 16.0251 7.97488C16.6815 8.63126 17.5718 9 18.5 9Z" fill="#2B2F42"/>
</svg>
