<svg width="22" height="16" viewBox="0 0 22 16" fill="none" xmlns="http://www.w3.org/2000/svg">
<path d="M11 0C17.075 0 22 4.925 22 11V16H20V11C20 8.65896 19.0878 6.41005 17.4569 4.73049C15.8261 3.05094 13.605 2.07293 11.265 2.004L11 2C8.65896 2.00003 6.41005 2.91224 4.73049 4.54306C3.05094 6.17389 2.07293 8.39497 2.004 10.735L2 11V16H0V11C0 4.925 4.925 0 11 0ZM11 4C12.8565 4 14.637 4.7375 15.9497 6.05025C17.2625 7.36301 18 9.14348 18 11V16H16V11C15.9999 9.71154 15.5025 8.47284 14.6113 7.54222C13.7202 6.61161 12.5042 6.06092 11.217 6.005L11 6C9.71154 6.00007 8.47284 6.49754 7.54222 7.38866C6.61161 8.27978 6.06092 9.49575 6.005 10.783L6 11V16H4V11C4 9.14348 4.7375 7.36301 6.05025 6.05025C7.36301 4.7375 9.14348 4 11 4ZM11 8C11.7956 8 12.5587 8.31607 13.1213 8.87868C13.6839 9.44129 14 10.2044 14 11V16H12V11C12 10.7551 11.91 10.5187 11.7473 10.3356C11.5845 10.1526 11.3603 10.0357 11.117 10.007L11 10C10.7551 10 10.5187 10.09 10.3356 10.2527C10.1526 10.4155 10.0357 10.6397 10.007 10.883L10 11V16H8V11C8 10.2044 8.31607 9.44129 8.87868 8.87868C9.44129 8.31607 10.2044 8 11 8Z" fill="#2B2F42"/>
</svg>
