<svg width="57" height="46" viewBox="0 0 57 46" fill="none" xmlns="http://www.w3.org/2000/svg">
<path fill-rule="evenodd" clip-rule="evenodd" d="M5.43291 0C0.238682 10.9906 27.1502 10.1441 28.6238 21.4323H28.8016C30.2753 10.1441 57.1869 10.9906 51.9926 0C66.3286 16.5542 45.7582 13.843 41.4907 21.5139C40.655 23.5772 40.7861 25.3207 40.7505 27.6485C40.5483 32.9806 30.4442 34.7088 30.5753 43.9427C30.5845 44.7922 30.0123 45.2935 29.3071 45.4944L28.7127 45.578L28.1184 45.4944C27.4132 45.2935 26.841 44.7922 26.8501 43.9427C26.9813 34.7088 16.8772 32.9806 16.6749 27.6485C16.6394 25.3207 16.7705 23.5772 15.9348 21.5139C11.6672 13.843 -8.90302 16.5542 5.43291 0Z" fill="#0FC2C0"/>
</svg>
